<global>
amp_veltrack=60
ampeg_attack=0.002
ampeg_release=3.5
volume=4
</global>

<group>
group_label=P
loop_mode=loop_continuous
seq_length=2
seq_position=1
xf_cccurve=gain
xfin_hicc1=25
xfout_hicc1=50
xfout_locc1=26

<region>
hivel=127
key=D2
loop_end=203260
loop_mode=loop_continuous
loop_start=65774
loop_xfade=27248
lovel=0
offset=8461
release_start=219854
release_xfade=5213
sample=Snare_Off_Roll_P_D4_RR1.opus
volume=2.4
</region>

<region>
hivel=127
key=C#2
loop_end=200377
loop_mode=loop_continuous
loop_start=41920
loop_xfade=26928
lovel=0
offset=5564
release_start=201681
release_xfade=7036
sample=Snare_Off_Rim Roll_P_D4_RR1.opus
volume=3.3
</region>
</group>

<group>
group_label=MP
loop_mode=loop_continuous
seq_length=2
seq_position=1
xf_cccurve=gain
xfin_hicc1=50
xfin_locc1=26
xfout_hicc1=76
xfout_locc1=51

<region>
hivel=127
key=D2
loop_end=168080
loop_mode=loop_continuous
loop_start=37607
loop_xfade=6643
lovel=0
offset=6291
release_start=202144
release_xfade=5734
sample=Snare_Off_Roll_MP_D4_RR1.opus
volume=1.8
</region>

<region>
hivel=127
key=C#2
loop_end=206092
loop_mode=loop_continuous
loop_start=52374
loop_xfade=31335
lovel=0
offset=8661
release_start=209105
release_xfade=9118
sample=Snare_Off_Rim Roll_MP_D4_RR1.opus
volume=0.5
</region>
</group>

<group>
group_label=MF
loop_mode=loop_continuous
seq_length=2
seq_position=1
xf_cccurve=gain
xfin_hicc1=76
xfin_locc1=51
xfout_hicc1=101
xfout_locc1=77

<region>
hivel=127
key=D2
loop_end=163905
loop_mode=loop_continuous
loop_start=37168
loop_xfade=5970
lovel=0
offset=1336
release_start=202466
release_xfade=10172
sample=Snare_Off_Roll_MF_D4_RR1.opus
volume=-3.6
</region>

<region>
hivel=127
key=C#2
loop_end=195005
loop_mode=loop_continuous
loop_start=38868
loop_xfade=11780
lovel=0
offset=4418
release_start=199181
release_xfade=7040
sample=Snare_Off_Rim Roll_MF_D4_RR1.opus
volume=-3.5
</region>
</group>

<group>
group_label=F
loop_mode=loop_continuous
seq_length=2
seq_position=1
xf_cccurve=gain
xfin_hicc1=101
xfin_locc1=77
xfout_hicc1=126
xfout_locc1=102

<region>
hivel=127
key=D2
loop_end=162897
loop_mode=loop_continuous
loop_start=42711
loop_xfade=7491
lovel=0
offset=1306
release_start=192659
release_xfade=8430
sample=Snare_Off_Roll_F_D4_RR1.opus
volume=-3.6
</region>

<region>
hivel=127
key=C#2
loop_end=168727
loop_mode=loop_continuous
loop_start=68912
loop_xfade=7324
lovel=0
offset=4433
release_start=199821
release_xfade=5997
sample=Snare_Off_Rim Roll_F_D4_RR1.opus
volume=-3.5
</region>
</group>

<group>
group_label=FF
loop_mode=loop_continuous
seq_length=2
seq_position=1
xf_cccurve=gain
xfin_hicc1=127
xfin_locc1=102
xfout_hicc1=127
xfout_locc1=127

<region>
hivel=127
key=D2
loop_end=179671
loop_mode=loop_continuous
loop_start=67538
loop_xfade=8159
lovel=0
offset=1004
release_start=230514
release_xfade=6047
sample=Snare_Off_Roll_FF_D4_RR1.opus
volume=2
</region>

<region>
hivel=127
key=C#2
loop_end=193342
loop_mode=loop_continuous
loop_start=67928
loop_xfade=7433
lovel=0
offset=4446
release_start=201893
release_xfade=4813
sample=Snare_Off_Rim Roll_FF_D4_RR1.opus
volume=2.8
</region>
</group>

<group>
group_label=P_RR2
loop_mode=loop_continuous
seq_length=2
seq_position=2
xf_cccurve=gain
xfin_hicc1=25
xfout_hicc1=50
xfout_locc1=26

<region>
hivel=127
key=D2
loop_end=213776
loop_mode=loop_continuous
loop_start=51063
loop_xfade=12249
lovel=0
offset=9087
release_start=214308
release_xfade=6863
sample=Snare_Off_Roll_P_D4_RR2.opus
volume=2.1
</region>

<region>
hivel=127
key=C#2
loop_end=208427
loop_mode=loop_continuous
loop_start=46308
loop_xfade=27242
lovel=0
offset=9517
release_start=209454
release_xfade=7485
sample=Snare_Off_Rim Roll_P_D4_RR2.opus
volume=1.6
</region>
</group>

<group>
group_label=MP_RR2
loop_mode=loop_continuous
seq_length=2
seq_position=2
xf_cccurve=gain
xfin_hicc1=50
xfin_locc1=26
xfout_hicc1=76
xfout_locc1=51

<region>
hivel=127
key=D2
loop_end=143963
loop_mode=loop_continuous
loop_start=45373
loop_xfade=8848
lovel=0
offset=7974
release_start=203664
release_xfade=6180
sample=Snare_Off_Roll_MP_D4_RR2.opus
volume=2.8
</region>

<region>
hivel=127
key=C#2
loop_end=187931
loop_mode=loop_continuous
loop_start=62643
loop_xfade=49313
lovel=0
offset=2217
release_start=203483
release_xfade=7091
sample=Snare_Off_Rim Roll_MP_D4_RR2.opus
volume=2.9
</region>
</group>

<group>
group_label=MF_RR2
loop_mode=loop_continuous
seq_length=2
seq_position=2
xf_cccurve=gain
xfin_hicc1=76
xfin_locc1=51
xfout_hicc1=101
xfout_locc1=77

<region>
hivel=127
key=D2
loop_end=183281
loop_mode=loop_continuous
loop_start=55942
loop_xfade=4800
lovel=0
offset=1341
release_start=201681
release_xfade=6335
sample=Snare_Off_Roll_MF_D4_RR2.opus
volume=-4
</region>

<region>
hivel=127
key=C#2
loop_end=185089
loop_mode=loop_continuous
loop_start=49614
loop_xfade=11086
lovel=0
offset=4444
release_start=193722
release_xfade=7314
sample=Snare_Off_Rim Roll_MF_D4_RR2.opus
volume=-3.9
</region>
</group>

<group>
group_label=F_RR2
loop_mode=loop_continuous
seq_length=2
seq_position=2
xf_cccurve=gain
xfin_hicc1=101
xfin_locc1=77
xfout_hicc1=126
xfout_locc1=102

<region>
hivel=127
key=D2
loop_end=190461
loop_mode=loop_continuous
loop_start=57350
loop_xfade=9587
lovel=0
offset=1027
release_start=202535
release_xfade=6071
sample=Snare_Off_Roll_F_D4_RR2.opus
volume=-3.8
</region>

<region>
hivel=127
key=C#2
loop_end=186659
loop_mode=loop_continuous
loop_start=58860
loop_xfade=12720
lovel=0
offset=4403
release_start=201615
release_xfade=3903
sample=Snare_Off_Rim Roll_F_D4_RR2.opus
volume=-3.6
</region>
</group>

<group>
group_label=FF_RR2
loop_mode=loop_continuous
seq_length=2
seq_position=2
xf_cccurve=gain
xfin_hicc1=127
xfin_locc1=102
xfout_hicc1=127
xfout_locc1=127

<region>
hivel=127
key=D2
loop_end=178026
loop_mode=loop_continuous
loop_start=55184
loop_xfade=22647
lovel=0
offset=802
release_start=195124
release_xfade=5333
sample=Snare_Off_Roll_FF_D4_RR2.opus
volume=3.4
</region>

<region>
hivel=127
key=C#2
loop_end=190543
loop_mode=loop_continuous
loop_start=26331
loop_xfade=26331
lovel=0
offset=4423
release_start=203519
release_xfade=7015
sample=Snare_Off_Rim Roll_FF_D4_RR2.opus
volume=3.7
</region>
</group>